<svg id="Calque_1" data-name="Calque 1" xmlns="http://www.w3.org/2000/svg" xmlns:xlink="http://www.w3.org/1999/xlink" viewBox="0 0 393.99756 178.75"><defs><radialGradient id="Eté" cx="628.47314" cy="325.69434" r="63.86295" gradientUnits="userSpaceOnUse"><stop offset="0" stop-color="#fff"/><stop offset="0.08511" stop-color="#ffedd8"/><stop offset="0.20819" stop-color="#ffd5a7"/><stop offset="0.33454" stop-color="#ffc17d"/><stop offset="0.46204" stop-color="#ffb05b"/><stop offset="0.59104" stop-color="#ffa340"/><stop offset="0.7222" stop-color="#ff9a2d"/><stop offset="0.85677" stop-color="#ff9522"/><stop offset="1" stop-color="#ff931e"/></radialGradient><radialGradient id="Eté-2" cx="747.72266" cy="325.69434" r="78.01387" xlink:href="#Eté"/><radialGradient id="Eté-3" cx="915.3457" cy="325.31934" r="87.58126" xlink:href="#Eté"/><linearGradient id="Dégradé_sans_nom_12" x1="607.09814" y1="325.31934" x2="1001.0957" y2="325.31934" gradientUnits="userSpaceOnUse"><stop offset="0" stop-color="#0027ff"/><stop offset="0.99438" stop-color="#d10130"/></linearGradient></defs><title>ipc-logo</title><path d="M649.84814,237.94434v175.5h-42.75v-175.5Z" transform="translate(-607.09814 -235.94434)" style="fill:url(#Eté)"/><path d="M807.59766,322.31934q-7.002,12.62694-21.5,20.375-14.502,7.75194-36,7.75h-26.5v63h-42.75v-175.5h69.25q21,0,35.5,7.25,14.49609,7.2539,21.75,20,7.248,12.75,7.25,29.25A56.53173,56.53173,0,0,1,807.59766,322.31934Zm-42.5-11.625q6-5.74806,6-16.25,0-10.5-6-16.25-6-5.74806-18.25-5.75h-23.25v44h23.25Q759.09375,316.44434,765.09766,310.69434Z" transform="translate(-607.09814 -235.94434)" style="fill:url(#Eté-2)"/><path d="M840.8457,279.06934a80.41915,80.41915,0,0,1,31.375-31.75q20.12111-11.37306,45.625-11.375,31.248,0,53.5,16.5,22.248,16.5,29.75,45h-47a37.99479,37.99479,0,0,0-14.875-16.75,41.84616,41.84616,0,0,0-21.875-5.75q-19.752,0-32,13.75-12.252,13.75194-12.25,36.75,0,23.00389,12.25,36.75,12.24611,13.75194,32,13.75a41.80973,41.80973,0,0,0,21.875-5.75,37.95285,37.95285,0,0,0,14.875-16.75h47q-7.5,28.5-29.75,44.875-22.25389,16.37694-53.5,16.375-25.5,0-45.625-11.375a80.61025,80.61025,0,0,1-31.375-31.625q-11.25-20.25-11.25-46.25Q829.5957,299.44628,840.8457,279.06934Z" transform="translate(-607.09814 -235.94434)" style="fill:url(#Eté-3)"/><path d="M649.84814,237.94434v175.5h-42.75v-175.5Z" transform="translate(-607.09814 -235.94434)" style="fill:url(#Dégradé_sans_nom_12)"/><path d="M807.59766,322.31934q-7.002,12.62694-21.5,20.375-14.502,7.75194-36,7.75h-26.5v63h-42.75v-175.5h69.25q21,0,35.5,7.25,14.49609,7.2539,21.75,20,7.248,12.75,7.25,29.25A56.53173,56.53173,0,0,1,807.59766,322.31934Zm-42.5-11.625q6-5.74806,6-16.25,0-10.5-6-16.25-6-5.74806-18.25-5.75h-23.25v44h23.25Q759.09375,316.44434,765.09766,310.69434Z" transform="translate(-607.09814 -235.94434)" style="fill:url(#Dégradé_sans_nom_12)"/><path d="M840.8457,279.06934a80.41915,80.41915,0,0,1,31.375-31.75q20.12111-11.37306,45.625-11.375,31.248,0,53.5,16.5,22.248,16.5,29.75,45h-47a37.99479,37.99479,0,0,0-14.875-16.75,41.84616,41.84616,0,0,0-21.875-5.75q-19.752,0-32,13.75-12.252,13.75194-12.25,36.75,0,23.00389,12.25,36.75,12.24611,13.75194,32,13.75a41.80973,41.80973,0,0,0,21.875-5.75,37.95285,37.95285,0,0,0,14.875-16.75h47q-7.5,28.5-29.75,44.875-22.25389,16.37694-53.5,16.375-25.5,0-45.625-11.375a80.61025,80.61025,0,0,1-31.375-31.625q-11.25-20.25-11.25-46.25Q829.5957,299.44628,840.8457,279.06934Z" transform="translate(-607.09814 -235.94434)" style="fill:url(#Dégradé_sans_nom_12)"/></svg>