<svg xmlns="http://www.w3.org/2000/svg" xmlns:xlink="http://www.w3.org/1999/xlink" viewBox="0 0 394 178.75"><defs><radialGradient id="Eté" cx="21.38" cy="89.75" r="63.86" gradientUnits="userSpaceOnUse"><stop offset="0" stop-color="#fff"/><stop offset="0.09" stop-color="#ffedd8"/><stop offset="0.21" stop-color="#ffd5a7"/><stop offset="0.33" stop-color="#ffc17d"/><stop offset="0.46" stop-color="#ffb05b"/><stop offset="0.59" stop-color="#ffa340"/><stop offset="0.72" stop-color="#ff9a2d"/><stop offset="0.86" stop-color="#ff9522"/><stop offset="1" stop-color="#ff931e"/></radialGradient><radialGradient id="Eté-2" cx="140.62" r="78.01" xlink:href="#Eté"/><radialGradient id="Eté-3" cx="308.25" cy="89.38" r="87.58" xlink:href="#Eté"/><linearGradient id="Dégradé_sans_nom_31" y1="89.38" x2="394" y2="89.38" gradientUnits="userSpaceOnUse"><stop offset="0" stop-color="#4b66fa"/><stop offset="0.99" stop-color="#fa5074"/></linearGradient></defs><title>Fichier 1</title><g id="Calque_2" data-name="Calque 2"><g id="Calque_1-2" data-name="Calque 1"><path d="M42.75,2V177.5H0V2Z" style="fill:url(#Eté)"/><path d="M200.5,86.38Q193.5,99,179,106.75t-36,7.75H116.5v63H73.75V2H143q21,0,35.5,7.25t21.75,20Q207.5,42,207.5,58.5A56.6,56.6,0,0,1,200.5,86.38ZM158,74.75q6-5.75,6-16.25t-6-16.25q-6-5.74-18.25-5.75H116.5v44h23.25Q152,80.5,158,74.75Z" style="fill:url(#Eté-2)"/><path d="M233.75,43.13a80.3,80.3,0,0,1,31.37-31.75Q285.25,0,310.75,0,342,0,364.25,16.5T394,61.5H347a38,38,0,0,0-14.88-16.75A41.86,41.86,0,0,0,310.25,39q-19.75,0-32,13.75T266,89.5q0,23,12.25,36.75t32,13.75a41.77,41.77,0,0,0,21.87-5.75A37.89,37.89,0,0,0,347,117.5h47q-7.5,28.5-29.75,44.88t-53.5,16.37q-25.5,0-45.63-11.37a80.65,80.65,0,0,1-31.37-31.63Q222.5,115.5,222.5,89.5T233.75,43.13Z" style="fill:url(#Eté-3)"/><path d="M42.75,2V177.5H0V2Z" style="fill:url(#Dégradé_sans_nom_31)"/><path d="M200.5,86.38Q193.5,99,179,106.75t-36,7.75H116.5v63H73.75V2H143q21,0,35.5,7.25t21.75,20Q207.5,42,207.5,58.5A56.6,56.6,0,0,1,200.5,86.38ZM158,74.75q6-5.75,6-16.25t-6-16.25q-6-5.74-18.25-5.75H116.5v44h23.25Q152,80.5,158,74.75Z" style="fill:url(#Dégradé_sans_nom_31)"/><path d="M233.75,43.13a80.3,80.3,0,0,1,31.37-31.75Q285.25,0,310.75,0,342,0,364.25,16.5T394,61.5H347a38,38,0,0,0-14.88-16.75A41.86,41.86,0,0,0,310.25,39q-19.75,0-32,13.75T266,89.5q0,23,12.25,36.75t32,13.75a41.77,41.77,0,0,0,21.87-5.75A37.89,37.89,0,0,0,347,117.5h47q-7.5,28.5-29.75,44.88t-53.5,16.37q-25.5,0-45.63-11.37a80.65,80.65,0,0,1-31.37-31.63Q222.5,115.5,222.5,89.5T233.75,43.13Z" style="fill:url(#Dégradé_sans_nom_31)"/></g></g></svg>