<svg width="147" height="101" viewBox="0 0 147 101" fill="none" xmlns="http://www.w3.org/2000/svg">
<path d="M101.709 53.4222H47.8756C47.2658 53.4222 46.681 53.6643 46.2499 54.0952C45.8187 54.5262 45.5765 55.1107 45.5765 55.7201V61.3443C45.5765 61.9537 45.8187 62.5382 46.2499 62.9692C46.681 63.4001 47.2658 63.6422 47.8756 63.6422H101.709C102.318 63.6422 102.903 63.4001 103.334 62.9691C103.766 62.5382 104.008 61.9537 104.008 61.3443V55.7201C104.008 55.1107 103.766 54.5262 103.334 54.0952C102.903 53.6643 102.318 53.4222 101.709 53.4222ZM100.218 58.8878C100.14 59.2769 99.9583 59.6377 99.6916 59.9316C99.4249 60.2255 99.0833 60.4415 98.7034 60.5566C98.3235 60.6717 97.9194 60.6815 97.5343 60.5851C97.1492 60.4887 96.7976 60.2895 96.5168 60.009C96.2361 59.7284 96.0368 59.377 95.9403 58.9921C95.8438 58.6072 95.8536 58.2034 95.9688 57.8236C96.0839 57.4439 96.3 57.1025 96.594 56.8359C96.8881 56.5694 97.249 56.3876 97.6383 56.3099C97.9925 56.2371 98.3592 56.2533 98.7056 56.357C99.052 56.4608 99.3671 56.6489 99.6228 56.9044C99.8785 57.16 100.067 57.475 100.171 57.8211C100.274 58.1673 100.291 58.5338 100.218 58.8878Z" fill="url(#paint0_linear_212_79)"/>
<path d="M101.709 67.7302H47.8756C47.2658 67.7302 46.681 67.9723 46.2499 68.4032C45.8187 68.8342 45.5765 69.4186 45.5765 70.0281V75.6523C45.5765 76.2617 45.8187 76.8462 46.2499 77.2771C46.681 77.7081 47.2658 77.9502 47.8756 77.9502H101.709C102.318 77.9501 102.903 77.7081 103.334 77.2771C103.766 76.8462 104.008 76.2617 104.008 75.6523V70.0281C104.008 69.4186 103.766 68.8342 103.334 68.4032C102.903 67.9723 102.318 67.7302 101.709 67.7302ZM100.218 73.2688C100.14 73.6579 99.9583 74.0187 99.6916 74.3126C99.4249 74.6065 99.0833 74.8225 98.7034 74.9376C98.3235 75.0527 97.9194 75.0625 97.5343 74.9661C97.1492 74.8696 96.7976 74.6705 96.5168 74.3899C96.2361 74.1094 96.0368 73.7579 95.9403 73.3731C95.8438 72.9882 95.8536 72.5843 95.9688 72.2046C96.0839 71.8249 96.3 71.4835 96.594 71.2169C96.8881 70.9503 97.249 70.7685 97.6383 70.6909C97.9925 70.6181 98.3592 70.6343 98.7056 70.738C99.052 70.8418 99.3671 71.0299 99.6228 71.2854C99.8785 71.5409 100.067 71.8559 100.171 72.2021C100.274 72.5483 100.291 72.9148 100.218 73.2688Z" fill="url(#paint1_linear_212_79)"/>
<path d="M140.069 48.7891C135.839 42.9374 130.348 38.8075 123.479 36.5643C122.7 36.3099 122.317 35.9384 122.268 35.0881C122.196 33.8058 122.051 32.5286 121.834 31.2628C118.952 14.7354 105.208 1.84707 88.7038 0.688112C73.8976 -0.351619 62.2262 5.49822 54.0529 17.9662C52.4018 20.4848 51.2841 23.3543 49.8794 26.1435C49.4909 26.0227 48.953 25.8518 48.413 25.6881C41.4119 23.5649 34.6494 24.1621 28.3411 27.8781C20.8263 32.3048 16.6711 38.9776 15.8475 47.7052C15.7734 48.4906 15.9608 49.3044 14.9078 49.8593C7.1765 53.9337 2.32212 60.2377 0.54134 68.8528C0.379871 69.634 0.181333 70.4075 0 71.1845V76.6158C0.109326 76.82 0.192826 77.0369 0.248576 77.2616C1.81755 90.391 13.2834 100.781 27.3317 100.726C55.7744 100.615 84.2178 100.68 112.661 100.701C120.343 100.707 127.223 98.4482 133.355 93.7991C147.173 83.3243 150.238 62.8566 140.069 48.7891ZM117.461 95.1918C115.671 95.4224 113.869 95.539 112.064 95.5409C98.0822 95.5689 84.0999 95.574 70.1177 95.5563L70.1177 95.4997C55.1846 95.4997 40.2503 95.6213 25.3191 95.4563C15.6413 95.3493 6.66201 87.0305 5.34436 77.4163C3.93888 67.1612 8.75592 58.3036 18.2158 53.9927C20.1333 53.1189 20.845 51.9644 20.8186 49.8262C20.6355 34.9957 35.949 25.2688 49.3615 31.6204C49.5332 31.7018 49.705 31.783 49.8777 31.8621C52.2798 32.9619 53.5489 32.2905 54.4215 29.8213C55.4148 27.0105 56.3609 24.1232 57.815 21.5451C68.8966 1.89801 97.1529 0.17323 110.643 18.2271C114.814 23.7327 117.111 30.4288 117.197 37.334C117.248 39.6457 117.739 40.246 119.911 40.8712C131.13 44.0999 138.042 51.4264 140.433 62.8652C143.536 77.7133 132.465 93.2386 117.461 95.1918Z" fill="url(#paint2_linear_212_79)"/>
<defs>
<linearGradient id="paint0_linear_212_79" x1="0" y1="0.570312" x2="146.223" y2="100.514" gradientUnits="userSpaceOnUse">
<stop offset="0.255208" stop-color="#0027FF"/>
<stop offset="1" stop-color="#FF0036"/>
</linearGradient>
<linearGradient id="paint1_linear_212_79" x1="0" y1="0.570312" x2="146.223" y2="100.514" gradientUnits="userSpaceOnUse">
<stop offset="0.255208" stop-color="#0027FF"/>
<stop offset="1" stop-color="#FF0036"/>
</linearGradient>
<linearGradient id="paint2_linear_212_79" x1="0" y1="0.570312" x2="146.223" y2="100.514" gradientUnits="userSpaceOnUse">
<stop offset="0.255208" stop-color="#0027FF"/>
<stop offset="1" stop-color="#FF0036"/>
</linearGradient>
</defs>
</svg>
