<svg width="147" height="101" viewBox="0 0 147 101" fill="none" xmlns="http://www.w3.org/2000/svg">
<path d="M140.141 48.7891C135.909 42.9374 130.415 38.8075 123.543 36.5643C122.763 36.3099 122.381 35.9384 122.331 35.0881C122.259 33.8058 122.114 32.5286 121.897 31.2628C119.014 14.7354 105.263 1.84707 88.7496 0.688112C73.9357 -0.351619 62.2583 5.49822 54.0808 17.9662C52.4289 20.4848 51.3105 23.3543 49.9051 26.1435C49.5164 26.0227 48.9782 25.8518 48.4379 25.6881C41.4333 23.5649 34.6673 24.1621 28.3557 27.8781C20.8371 32.3048 16.6797 38.9776 15.8557 47.7052C15.7815 48.4906 15.969 49.3044 14.9155 49.8593C7.1802 53.9337 2.32331 60.2377 0.54162 68.8528C0.380067 69.634 0.181427 70.4075 0 71.1845V76.6158C0.109383 76.82 0.192925 77.0369 0.248704 77.2616C1.81848 90.391 13.2902 100.781 27.3458 100.726C55.8032 100.615 84.2613 100.68 112.719 100.701C120.405 100.707 127.288 98.4482 133.424 93.7991C147.249 83.3243 150.316 62.8567 140.141 48.7891ZM117.522 95.1918C115.731 95.4224 113.928 95.539 112.122 95.5409C98.1327 95.5689 84.1433 95.574 70.1539 95.5563L70.1538 95.4998C55.2131 95.4998 40.271 95.6213 25.3321 95.4563C15.6494 95.3493 6.66545 87.0305 5.34712 77.4163C3.94091 67.1612 8.76044 58.3036 18.2252 53.9927C20.1437 53.1189 20.8557 51.9644 20.8293 49.8262C20.6461 34.9957 35.9676 25.2688 49.3869 31.6204C49.5588 31.7018 49.7306 31.783 49.9035 31.8621C52.3068 32.9619 53.5765 32.2905 54.4496 29.8213C55.4434 27.0105 56.3899 24.1232 57.8448 21.5451C68.9321 1.89801 97.2031 0.17323 110.7 18.2271C114.873 23.7327 117.171 30.4288 117.258 37.334C117.308 39.6457 117.8 40.246 119.973 40.8712C131.198 44.0999 138.113 51.4264 140.505 62.8652C143.61 77.7133 132.533 93.2386 117.522 95.1918Z" fill="url(#paint0_linear_212_73)"/>
<path d="M90.8461 49.8856C90.6487 49.688 90.4143 49.5312 90.1562 49.4241C89.898 49.3171 89.6213 49.2619 89.3418 49.2617C89.0623 49.2616 88.7856 49.3165 88.5273 49.4232C88.2691 49.53 88.0345 49.6866 87.8368 49.884C87.6392 50.0814 87.4825 50.3158 87.3756 50.5738C87.2687 50.8317 87.2138 51.1082 87.2139 51.3874C87.2141 51.6666 87.2693 51.943 87.3765 52.2009C87.4836 52.4587 87.6406 52.6929 87.8385 52.8901L100.057 65.0961L87.8385 77.302C87.6406 77.4992 87.4836 77.7334 87.3765 77.9913C87.2693 78.2491 87.2141 78.5255 87.2139 78.8047C87.2138 79.0839 87.2687 79.3604 87.3756 79.6184C87.4825 79.8763 87.6392 80.1107 87.8368 80.3081C88.0345 80.5055 88.2691 80.6621 88.5273 80.7689C88.7856 80.8757 89.0623 80.9305 89.3418 80.9304C89.6213 80.9302 89.898 80.8751 90.1562 80.768C90.4143 80.661 90.6487 80.5041 90.8461 80.3065L104.51 66.657C104.908 66.2346 105.13 65.6763 105.13 65.0961C105.13 64.5158 104.908 63.9575 104.51 63.5352L90.8461 49.8856Z" fill="url(#paint1_linear_212_73)"/>
<path d="M62.0704 49.8856C61.8729 49.6884 61.6384 49.5319 61.3804 49.4251C61.1224 49.3183 60.8458 49.2634 60.5665 49.2634C60.2873 49.2634 60.0107 49.3183 59.7527 49.4251C59.4946 49.5319 59.2602 49.6884 59.0627 49.8856L45.3988 63.5351C45.0005 63.9575 44.7787 64.5158 44.7787 65.0961C44.7787 65.6763 45.0005 66.2346 45.3988 66.657L59.0627 80.3065C59.2601 80.5041 59.4946 80.661 59.7527 80.768C60.0108 80.8751 60.2875 80.9302 60.567 80.9304C60.8465 80.9305 61.1233 80.8757 61.3815 80.7689C61.6398 80.6621 61.8744 80.5055 62.072 80.3081C62.2696 80.1107 62.4264 79.8763 62.5333 79.6184C62.6401 79.3604 62.6951 79.0839 62.6949 78.8047C62.6948 78.5255 62.6395 78.2491 62.5324 77.9913C62.4252 77.7334 62.2682 77.4992 62.0704 77.302L49.8516 65.0961L62.0704 52.8901C62.4692 52.4917 62.6933 51.9513 62.6933 51.3879C62.6933 50.8244 62.4692 50.2841 62.0704 49.8856Z" fill="url(#paint2_linear_212_73)"/>
<path d="M80.802 43.2803C80.1729 43.1119 79.5025 43.2001 78.9384 43.5254C78.3744 43.8507 77.9628 44.3866 77.7942 45.015L67.3621 83.9072C67.1936 84.5356 67.2819 85.2052 67.6076 85.7686C67.9333 86.332 68.4696 86.7431 69.0987 86.9115C69.7278 87.0799 70.3981 86.9918 70.9622 86.6665C71.5262 86.3412 71.9378 85.8055 72.1065 85.1771L82.5386 46.285C82.7072 45.6565 82.6189 44.9868 82.2932 44.4234C81.9676 43.8599 81.4311 43.4487 80.802 43.2803Z" fill="url(#paint3_linear_212_73)"/>
<defs>
<linearGradient id="paint0_linear_212_73" x1="0" y1="0.570312" x2="146.145" y2="100.514" gradientUnits="userSpaceOnUse">
<stop offset="0.203125" stop-color="#FF0036"/>
<stop offset="1" stop-color="#0027FF"/>
</linearGradient>
<linearGradient id="paint1_linear_212_73" x1="0" y1="0.570312" x2="146.145" y2="100.514" gradientUnits="userSpaceOnUse">
<stop offset="0.203125" stop-color="#FF0036"/>
<stop offset="1" stop-color="#0027FF"/>
</linearGradient>
<linearGradient id="paint2_linear_212_73" x1="0" y1="0.570312" x2="146.145" y2="100.514" gradientUnits="userSpaceOnUse">
<stop offset="0.203125" stop-color="#FF0036"/>
<stop offset="1" stop-color="#0027FF"/>
</linearGradient>
<linearGradient id="paint3_linear_212_73" x1="0" y1="0.570312" x2="146.145" y2="100.514" gradientUnits="userSpaceOnUse">
<stop offset="0.203125" stop-color="#FF0036"/>
<stop offset="1" stop-color="#0027FF"/>
</linearGradient>
</defs>
</svg>
