<svg width="31" height="31" viewBox="0 0 31 31" fill="none" xmlns="http://www.w3.org/2000/svg">
<path fill-rule="evenodd" clip-rule="evenodd" d="M5.93331 0C4.48667 0 3.09928 0.575569 2.07636 1.60009C1.05343 2.62461 0.47876 4.01415 0.47876 5.46304V24.5837C0.47876 26.0326 1.05343 27.4221 2.07636 28.4467C3.09928 29.4712 4.48667 30.0467 5.93331 30.0467H25.0242C26.4708 30.0467 27.8582 29.4712 28.8812 28.4467C29.9041 27.4221 30.4788 26.0326 30.4788 24.5837V5.46304C30.4788 4.01415 29.9041 2.62461 28.8812 1.60009C27.8582 0.575569 26.4708 0 25.0242 0H5.93331ZM19.5165 7.20439C19.5718 7.03027 19.5916 6.84681 19.5749 6.66487C19.5581 6.48293 19.505 6.30621 19.4188 6.14517C19.3327 5.98414 19.2151 5.84206 19.0731 5.72735C18.9311 5.61265 18.7675 5.52764 18.5922 5.47738C18.4168 5.42711 18.2331 5.4126 18.052 5.43471C17.8709 5.45681 17.6961 5.51509 17.5379 5.60608C17.3797 5.69708 17.2413 5.81893 17.131 5.96445C17.0207 6.10996 16.9406 6.27616 16.8956 6.45322L11.441 22.8424C11.3857 23.0165 11.3659 23.1999 11.3827 23.3819C11.3994 23.5638 11.4525 23.7405 11.5387 23.9016C11.6249 24.0626 11.7424 24.2047 11.8844 24.3194C12.0264 24.4341 12.19 24.5191 12.3654 24.5694C12.5408 24.6196 12.7244 24.6341 12.9055 24.612C13.0866 24.5899 13.2614 24.5317 13.4196 24.4407C13.5778 24.3497 13.7162 24.2278 13.8265 24.0823C13.9368 23.9368 14.0169 23.7706 14.0619 23.5935L19.5165 7.20439ZM9.62467 11.8917C9.87307 11.6341 10.0105 11.2891 10.0074 10.931C10.0043 10.5729 9.86089 10.2304 9.60806 9.97713C9.35523 9.72391 9.01321 9.58027 8.65567 9.57716C8.29813 9.57405 7.95367 9.71171 7.69649 9.96049L3.60558 14.0578C3.34994 14.3139 3.20632 14.6612 3.20632 15.0234C3.20632 15.3855 3.34994 15.7328 3.60558 15.989L7.69649 20.0862C7.95367 20.335 8.29813 20.4727 8.65567 20.4696C9.01321 20.4665 9.35523 20.3228 9.60806 20.0696C9.86089 19.8164 10.0043 19.4738 10.0074 19.1157C10.0105 18.7576 9.87307 18.4126 9.62467 18.1551L6.49785 15.0234L9.62467 11.8917ZM23.261 9.96049C23.1352 9.83005 22.9848 9.726 22.8184 9.65442C22.652 9.58285 22.4731 9.54517 22.292 9.5436C22.111 9.54202 21.9314 9.57658 21.7638 9.64525C21.5962 9.71392 21.444 9.81533 21.3159 9.94357C21.1879 10.0718 21.0867 10.2243 21.0181 10.3921C20.9495 10.56 20.915 10.7398 20.9166 10.9212C20.9182 11.1025 20.9558 11.2817 21.0273 11.4484C21.0987 11.615 21.2026 11.7657 21.3328 11.8917L24.4597 15.0234L21.3328 18.1551C21.0845 18.4126 20.947 18.7576 20.9501 19.1157C20.9532 19.4738 21.0966 19.8164 21.3495 20.0696C21.6023 20.3228 21.9443 20.4665 22.3018 20.4696C22.6594 20.4727 23.0038 20.335 23.261 20.0862L27.3519 15.989C27.6076 15.7328 27.7512 15.3855 27.7512 15.0234C27.7512 14.6612 27.6076 14.3139 27.3519 14.0578L23.261 9.96049Z" fill="url(#paint0_linear_212_46)"/>
<defs>
<linearGradient id="paint0_linear_212_46" x1="1.47876" y1="-0.500779" x2="30.0269" y2="30.5032" gradientUnits="userSpaceOnUse">
<stop offset="0.078125" stop-color="#FF0036"/>
<stop offset="0.9375" stop-color="#0027FF"/>
</linearGradient>
</defs>
</svg>
