<svg width="31" height="41" viewBox="0 0 31 41" fill="none" xmlns="http://www.w3.org/2000/svg">
<path d="M5.47876 0C2.71733 0 0.47876 2.24206 0.47876 5.00779V35.0545C0.47876 37.8203 2.71733 40.0623 5.47876 40.0623H29.2288C29.919 40.0623 30.4788 39.5017 30.4788 38.8104C30.4788 38.119 29.919 37.5584 29.2288 37.5584H5.47876C4.09806 37.5584 2.97876 36.4374 2.97876 35.0545H27.9788C29.3595 35.0545 30.4788 33.9335 30.4788 32.5506V5.00779C30.4788 2.24206 28.2403 0 25.4788 0H5.47876ZM19.2288 13.7714C19.2288 15.8457 17.5498 17.5273 15.4788 17.5273C13.4077 17.5273 11.7288 15.8457 11.7288 13.7714C11.7288 11.6971 13.4077 10.0156 15.4788 10.0156C17.5498 10.0156 19.2288 11.6971 19.2288 13.7714ZM7.97876 21.9091C7.97876 20.872 8.81823 20.0312 9.85376 20.0312H21.1038C22.1393 20.0312 22.9788 20.872 22.9788 21.9091V22.5351C22.9788 25.3009 20.7403 27.5428 17.9788 27.5428H12.9788C10.2173 27.5428 7.97876 25.3009 7.97876 22.5351V21.9091Z" fill="url(#paint0_linear_212_40)"/>
<defs>
<linearGradient id="paint0_linear_212_40" x1="-0.02124" y1="1.50234" x2="28.0342" y2="38.5179" gradientUnits="userSpaceOnUse">
<stop offset="0.125" stop-color="#0027FF"/>
<stop offset="0.947917" stop-color="#FF0036"/>
</linearGradient>
</defs>
</svg>
