<svg width="31" height="27" viewBox="0 0 31 27" fill="none" xmlns="http://www.w3.org/2000/svg">
<path d="M16.5381 2.81688H25.7913C28.173 2.81688 30.1398 4.59596 30.4393 6.89965L30.4688 7.203L30.4788 7.51168V21.5961C30.4788 24.0852 28.5446 26.122 26.0995 26.2809L25.7913 26.2909H5.16626C2.68098 26.2909 0.647437 24.3538 0.48873 21.9048L0.47876 21.5961V8.45065H9.9863L10.2735 8.43593C10.8433 8.37737 11.382 8.14573 11.8169 7.77229L12.0254 7.57389L16.5381 2.81688ZM10.1663 0C10.6734 0 11.1691 0.13728 11.602 0.394668L11.8538 0.563376L14.3256 2.42064L10.666 6.28047L10.552 6.38252C10.4307 6.47446 10.2888 6.53548 10.1387 6.56024L9.9863 6.57272H0.47876V4.6948C0.47876 2.20565 2.41289 0.16894 4.85806 0.0099862L5.16626 0H10.1663Z" fill="url(#paint0_linear_212_58)"/>
<defs>
<linearGradient id="paint0_linear_212_58" x1="-1.52124" y1="-1.50234" x2="29.523" y2="26.9939" gradientUnits="userSpaceOnUse">
<stop offset="0.145833" stop-color="#FF0036"/>
<stop offset="0.869792" stop-color="#0027FF"/>
</linearGradient>
</defs>
</svg>
