<svg width="31" height="31" viewBox="0 0 31 31" fill="none" xmlns="http://www.w3.org/2000/svg">
<path d="M6.89126 0C5.71626 0 4.64126 0.287948 3.66626 0.863844C2.69126 1.43974 1.91626 2.21595 1.34126 3.19247C0.76626 4.16899 0.47876 5.24566 0.47876 6.42249V23.6243C0.47876 24.8011 0.76626 25.8778 1.34126 26.8543C1.91626 27.8308 2.69126 28.607 3.66626 29.1829C4.64126 29.7588 5.71626 30.0467 6.89126 30.0467H24.0663C25.2413 30.0467 26.3163 29.7588 27.2913 29.1829C28.2663 28.607 29.0413 27.8308 29.6163 26.8543C30.1913 25.8778 30.4788 24.8011 30.4788 23.6243V6.42249C30.4788 5.24566 30.1913 4.16899 29.6163 3.19247C29.0413 2.21595 28.2663 1.43974 27.2913 0.863844C26.3163 0.287948 25.2413 0 24.0663 0H6.89126ZM21.9288 4.6948C22.9288 4.6948 23.785 5.04535 24.4975 5.74644C25.21 6.44753 25.5663 7.29885 25.5663 8.30041C25.5663 9.30197 25.21 10.1596 24.4975 10.8732C23.785 11.5868 22.9288 11.9436 21.9288 11.9436C21.0538 11.9436 20.2788 11.6556 19.6038 11.0797L12.6288 14.6478V14.9483C12.6288 15.1486 12.6163 15.3364 12.5913 15.5116L19.4913 19.0421C20.1913 18.4161 21.0038 18.1032 21.9288 18.1032C22.9288 18.1032 23.785 18.46 24.4975 19.1736C25.21 19.8872 25.5663 20.7448 25.5663 21.7463C25.5663 22.7479 25.21 23.5992 24.4975 24.3003C23.785 25.0014 22.9288 25.3519 21.9288 25.3519C20.9288 25.3519 20.0788 25.0014 19.3788 24.3003C18.6788 23.5992 18.3288 22.7479 18.3288 21.7463V21.521L11.1663 17.8778C10.5413 18.3535 9.82876 18.5914 9.02876 18.5914C8.02876 18.5914 7.17251 18.2346 6.46001 17.521C5.74751 16.8074 5.39126 15.9498 5.39126 14.9483C5.39126 13.9467 5.74751 13.0954 6.46001 12.3943C7.17251 11.6932 8.02876 11.3426 9.02876 11.3426C9.90376 11.3426 10.6788 11.6306 11.3538 12.2065L18.3288 8.63844V8.30041C18.3288 7.29885 18.6788 6.44753 19.3788 5.74644C20.0788 5.04535 20.9288 4.6948 21.9288 4.6948Z" fill="url(#paint0_linear_212_52)"/>
<defs>
<linearGradient id="paint0_linear_212_52" x1="-0.521241" y1="-3.50545" x2="30.5315" y2="30.4994" gradientUnits="userSpaceOnUse">
<stop offset="0.078125" stop-color="#0027FF"/>
<stop offset="0.911458" stop-color="#FF0036"/>
</linearGradient>
</defs>
</svg>
