<svg width="250" height="50" viewBox="0 0 250 50" fill="none" xmlns="http://www.w3.org/2000/svg">
<path d="M25 50C38.8071 50 50 38.8071 50 25C50 11.1929 38.8071 0 25 0C11.1929 0 0 11.1929 0 25C0 38.8071 11.1929 50 25 50Z" fill="#000F60"/>
<path fill-rule="evenodd" clip-rule="evenodd" d="M38.6412 39.5236C39.022 39.1428 39.5384 38.9288 40.077 38.9288C40.6155 38.9288 41.132 39.1428 41.5127 39.5236L46.4847 44.4955C46.6737 44.684 46.8237 44.9078 46.9261 45.1543C47.0284 45.4008 47.0812 45.665 47.0814 45.9319C47.0816 46.1988 47.0292 46.4631 46.9271 46.7097C46.8251 46.9563 46.6754 47.1804 46.4867 47.3691C46.298 47.5578 46.0739 47.7075 45.8273 47.8095C45.5807 47.9116 45.3164 47.964 45.0495 47.9638C44.7826 47.9636 44.5184 47.9108 44.2719 47.8084C44.0254 47.706 43.8016 47.5561 43.6131 47.3671L38.6412 42.3951C38.2604 42.0143 38.0465 41.4978 38.0465 40.9593C38.0465 40.4208 38.2604 39.9044 38.6412 39.5236V39.5236ZM30.9899 32.38C31.4861 31.8905 32.1162 31.5588 32.8007 31.4269C33.4851 31.295 34.1933 31.3686 34.8359 31.6387C35.4786 31.9087 36.0268 32.3629 36.4116 32.9441C36.7964 33.5254 37.0005 34.2075 36.9982 34.9045C36.9958 35.6016 36.7871 36.2823 36.3984 36.8609C36.0096 37.4395 35.4583 37.89 34.8138 38.1557C34.1694 38.4214 33.4607 38.4903 32.7772 38.3537C32.0936 38.2171 31.4658 37.8812 30.973 37.3883C30.6452 37.0583 30.3857 36.6671 30.2091 36.2368C30.0326 35.8065 29.9426 35.3457 29.9442 34.8806C29.9457 34.4155 30.0389 33.9553 30.2183 33.5263C30.3978 33.0972 30.6599 32.7077 30.9899 32.3799V32.38ZM25.4462 39.5587C25.8244 39.1804 26.3374 38.9679 26.8723 38.9679C27.4072 38.9679 27.9202 39.1804 28.2984 39.5586C28.6766 39.9369 28.8891 40.4499 28.8891 40.9847C28.8891 41.5196 28.6766 42.0326 28.2984 42.4108L23.2538 47.4554C23.0665 47.6427 22.8442 47.7913 22.5995 47.8926C22.3548 47.994 22.0925 48.0461 21.8277 48.0461C21.5628 48.0461 21.3005 47.994 21.0558 47.8926C20.8111 47.7913 20.5888 47.6427 20.4015 47.4554C20.2142 47.2681 20.0657 47.0458 19.9643 46.8011C19.863 46.5564 19.8108 46.2942 19.8108 46.0293C19.8108 45.7644 19.863 45.5022 19.9643 45.2575C20.0657 45.0128 20.2142 44.7904 20.4015 44.6032L25.4462 39.5587ZM20.4899 21.3723C20.8707 20.9915 21.3872 20.7776 21.9257 20.7776C22.4642 20.7776 22.9807 20.9915 23.3615 21.3723L28.3334 26.3442C28.7134 26.7252 28.9265 27.2414 28.9262 27.7794C28.9258 28.3175 28.7119 28.8334 28.3314 29.2138C27.951 29.5943 27.4351 29.8082 26.8971 29.8085C26.359 29.8089 25.8428 29.5957 25.4619 29.2158L20.4899 24.2439C20.1091 23.8631 19.8952 23.3466 19.8952 22.8081C19.8952 22.2695 20.1091 21.7531 20.4899 21.3723V21.3723ZM12.8386 14.2287C13.3348 13.7391 13.9649 13.4075 14.6493 13.2756C15.3338 13.1436 16.042 13.2173 16.6846 13.4873C17.3272 13.7574 17.8755 14.2116 18.2603 14.7928C18.6451 15.374 18.8492 16.0561 18.8468 16.7532C18.8445 17.4502 18.6358 18.131 18.2471 18.7095C17.8583 19.2881 17.307 19.7387 16.6626 20.0043C16.0181 20.27 15.3095 20.3389 14.6259 20.2024C13.9424 20.0658 13.3146 19.7299 12.8217 19.237C12.494 18.9071 12.2344 18.5158 12.0579 18.0855C11.8814 17.6552 11.7913 17.1944 11.7929 16.7293C11.7945 16.2643 11.8876 15.8041 12.067 15.375C12.2465 14.9459 12.5087 14.5564 12.8386 14.2287V14.2287ZM25.5695 3.1327C25.9477 2.75447 26.4607 2.54199 26.9956 2.54199C27.5305 2.54199 28.0435 2.75448 28.4217 3.13271C28.7999 3.51093 29.0124 4.02392 29.0124 4.55881C29.0124 5.0937 28.7999 5.60668 28.4217 5.98491L23.3771 11.0295C22.9986 11.4061 22.4861 11.6173 21.9521 11.6166C21.4181 11.6159 20.9062 11.4034 20.5286 11.0259C20.151 10.6483 19.9386 10.1364 19.9379 9.60237C19.9372 9.06839 20.1483 8.55592 20.5249 8.17736L25.5695 3.1327ZM2.33862 3.22102C2.71941 2.84023 3.23588 2.62631 3.7744 2.62631C4.31292 2.62631 4.82939 2.84023 5.21018 3.22102L10.1822 8.19299C10.5612 8.57414 10.7737 9.09006 10.7729 9.62762C10.7722 10.1652 10.5583 10.6805 10.1782 11.0606C9.79812 11.4407 9.28279 11.6546 8.74523 11.6553C8.20768 11.6561 7.69176 11.4436 7.3106 11.0646L2.33862 6.0926C1.95782 5.71181 1.7439 5.19534 1.7439 4.65681C1.7439 4.11829 1.95782 3.60182 2.33862 3.22102V3.22102Z" fill="white"/>
<path d="M67.8942 38.1564C69.4256 38.1942 70.9424 37.8516 72.3087 37.159C73.7071 36.326 74.8007 35.0656 75.4283 33.5638V33.5638L75.9933 37.6925H81.738V20.8301C81.7752 19.414 81.4251 18.0146 80.7256 16.7827C79.9569 15.5691 78.8052 14.6468 77.453 14.1617C75.527 13.4824 73.4903 13.1716 71.4494 13.2456C69.6073 13.2172 67.7733 13.4955 66.0225 14.069C64.5537 14.5348 63.2447 15.4025 62.2438 16.574C61.2806 17.7954 60.7432 19.2982 60.7134 20.8534H66.4346C66.5573 20.3535 66.7857 19.8857 67.1046 19.4816C67.4234 19.0775 67.8251 18.7464 68.2827 18.5107C69.1715 18.0657 70.1495 17.8278 71.1433 17.8149C72.2255 17.7119 73.3065 18.0227 74.1687 18.6847C74.5045 19.0129 74.7656 19.4097 74.9342 19.848C75.1029 20.2863 75.175 20.7558 75.1457 21.2245V21.2245V22.6626L72.1086 22.7089C67.808 22.7553 64.661 23.4628 62.6676 24.8312C61.6949 25.4884 60.9085 26.3857 60.3846 27.4361C59.8608 28.4866 59.6172 29.6546 59.6775 30.8269C59.6336 32.2312 60.0108 33.6165 60.7605 34.8048C61.4857 35.8977 62.5062 36.7623 63.7034 37.2982C65.021 37.8865 66.4514 38.1795 67.8942 38.1564V38.1564ZM70.2015 33.703C69.1715 33.7311 68.164 33.3989 67.3527 32.7636C66.9645 32.4525 66.6554 32.0538 66.4508 31.6003C66.2462 31.1468 66.1519 30.6512 66.1755 30.1543C66.1544 29.7256 66.2243 29.2973 66.3805 28.8975C66.5368 28.4978 66.7758 28.1356 67.082 27.8348C67.7595 27.2239 68.5822 26.7967 69.4717 26.5939C70.5189 26.3313 71.5939 26.195 72.6736 26.188V26.188L75.1457 26.1416V29.6904C75.1418 30.2145 74.9953 30.7276 74.7219 31.1748C74.4284 31.6668 74.0498 32.1027 73.6036 32.4621C73.1302 32.8469 72.5974 33.1524 72.0262 33.3667C71.4437 33.5898 70.8252 33.7038 70.2015 33.703ZM95.6052 38.1099C96.0891 38.1084 96.5711 38.05 97.0414 37.936C97.5279 37.82 98.0067 37.6847 98.4775 37.5301V33.3551L97.3239 33.2855C96.9102 33.2806 96.5023 33.1881 96.127 33.0142C95.7516 32.8403 95.4173 32.5889 95.1461 32.2766C94.7363 31.6384 94.5347 30.8887 94.5693 30.1311V3.22559H87.8358V30.9661C87.8352 31.8248 87.9061 32.6821 88.0477 33.529C88.1839 34.3598 88.5147 35.1466 89.013 35.8253C89.6171 36.5877 90.4254 37.1629 91.3438 37.4836C92.7139 37.9516 94.1584 38.1639 95.6052 38.11V38.1099ZM114.134 38.1563C115.813 38.1595 117.476 37.8366 119.031 37.2054C120.56 36.5994 121.932 35.6559 123.045 34.4452C124.155 33.2322 124.873 31.7124 125.106 30.0847H118.914C118.782 30.5926 118.55 31.0694 118.233 31.4874C117.916 31.9055 117.519 32.2565 117.065 32.5201C116.115 33.0307 115.048 33.2864 113.969 33.2624C112.981 33.2917 112.005 33.0382 111.156 32.5317C110.367 32.0306 109.747 31.3031 109.378 30.4442C108.951 29.4372 108.75 28.3484 108.79 27.255H125.129V25.4226C125.173 23.2394 124.735 21.0734 123.846 19.079C123.036 17.2973 121.706 15.8017 120.032 14.788C118.131 13.7049 115.967 13.1709 113.781 13.2456C111.54 13.181 109.329 13.7649 107.412 14.9272C105.659 16.0346 104.258 17.6199 103.375 19.4966C102.426 21.5242 101.951 23.741 101.986 25.9793C101.93 28.2248 102.457 30.4463 103.516 32.4273C104.504 34.2198 105.987 35.6895 107.789 36.6603C109.743 37.6881 111.927 38.2029 114.134 38.1564V38.1563ZM118.702 23.2191H108.766C108.765 22.3423 108.967 21.4771 109.355 20.6909C109.738 19.8969 110.328 19.2201 111.062 18.731C111.871 18.2102 112.819 17.9473 113.781 17.9772C114.743 17.9414 115.695 18.1829 116.524 18.673C117.247 19.1292 117.817 19.7917 118.16 20.575C118.527 21.4077 118.712 22.3092 118.702 23.2191V23.2191ZM136.783 45.1611V34.0973C137.128 34.6694 137.535 35.2022 137.996 35.6861C138.466 36.1791 138.996 36.6116 139.573 36.9734C140.171 37.3486 140.816 37.6412 141.492 37.8432C142.21 38.0559 142.956 38.1615 143.705 38.1564C145.514 38.1842 147.296 37.7192 148.861 36.8111C150.455 35.8331 151.709 34.3874 152.452 32.6709C153.4 30.4084 153.846 27.967 153.758 25.5154C153.838 23.1485 153.425 20.7909 152.546 18.5919C151.874 16.9379 150.711 15.5295 149.214 14.5561C147.762 13.6713 146.088 13.2169 144.388 13.2456C143.586 13.2419 142.787 13.3393 142.01 13.5355C141.279 13.7198 140.575 13.9965 139.915 14.3589C139.285 14.7048 138.696 15.1211 138.161 15.5998C137.647 16.0574 137.199 16.5843 136.83 17.1654V17.1654L136.807 13.7095H129.908V45.1611H136.783ZM142.057 33.1928C140.971 33.232 139.912 32.8496 139.102 32.1258C138.289 31.3565 137.689 30.3896 137.36 29.3194C136.967 28.106 136.772 26.8372 136.783 25.5619C136.718 23.7155 137.17 21.8876 138.09 20.2851C138.494 19.603 139.078 19.0446 139.777 18.6705C140.477 18.2964 141.265 18.1208 142.057 18.1628C142.807 18.1473 143.549 18.3182 144.217 18.6603C144.885 19.0024 145.457 19.5049 145.883 20.1228C146.935 21.7342 147.443 23.6406 147.331 25.5619C147.5 27.6113 146.964 29.657 145.812 31.3605C145.37 31.9351 144.801 32.3996 144.15 32.7175C143.498 33.0354 142.782 33.1981 142.057 33.1928ZM165.201 37.6925V22.3842C165.177 21.6676 165.406 20.9655 165.848 20.401C166.292 19.8589 166.873 19.4463 167.531 19.2065C168.215 18.9449 168.942 18.8112 169.674 18.8122C170.704 18.7816 171.716 19.0869 172.558 19.682C172.948 19.9661 173.261 20.3429 173.468 20.7782C173.676 21.2135 173.772 21.6937 173.747 22.1754V22.1754V37.6925H180.645V21.1781C180.691 19.7146 180.284 18.2727 179.48 17.0495C178.706 15.9231 177.64 15.029 176.396 14.4633C175.062 13.8563 173.611 13.5514 172.146 13.5703C171.029 13.5402 169.917 13.7293 168.873 14.127C168.053 14.4521 167.295 14.9193 166.637 15.507C166.085 16.0057 165.588 16.5617 165.153 17.1654V17.1654V3.22559H158.326V37.6925H165.201Z" fill="#000F60"/>
<path d="M206.69 38.7095V14.4724H200.048V38.7095H206.69ZM219.952 38.7095V23.1922C219.926 22.4623 220.153 21.7457 220.595 21.1646C221.013 20.6334 221.563 20.2212 222.19 19.9691C222.794 19.7176 223.441 19.5862 224.095 19.5824C224.723 19.5841 225.343 19.7158 225.917 19.9691C226.5 20.2178 227.011 20.6086 227.405 21.106C227.811 21.6358 228.022 22.2902 228 22.9578V22.9578V38.7095H234.929V23.1922C234.893 22.4393 235.13 21.699 235.595 21.106C236.025 20.5852 236.583 20.1853 237.214 19.9457C237.814 19.7103 238.451 19.5871 239.095 19.5824C239.746 19.5792 240.391 19.7108 240.988 19.9691C241.594 20.2362 242.108 20.6766 242.464 21.2349C242.884 21.9379 243.087 22.7492 243.048 23.5672V38.7095H250V22.7233C250.041 21.3093 249.794 19.9016 249.274 18.5862C248.852 17.555 248.196 16.6362 247.357 15.9023C246.595 15.2477 245.708 14.7534 244.75 14.4491C243.846 14.1585 242.902 14.0083 241.952 14.0037C240.439 13.9847 238.947 14.3689 237.631 15.1171C236.398 15.805 235.33 16.7528 234.5 17.8947C234.039 17.053 233.402 16.3213 232.631 15.7499C231.882 15.1907 231.051 14.7518 230.167 14.449C229.34 14.16 228.471 14.0095 227.595 14.0036C225.929 13.9402 224.277 14.3377 222.821 15.1522C221.637 15.8466 220.611 16.7807 219.809 17.8947V17.8947V14.4724H213V38.7095H219.952Z" fill="#000F60"/>
<path d="M203.226 9.6772C205.007 9.6772 206.452 8.23296 206.452 6.45139C206.452 4.66983 205.007 3.22559 203.226 3.22559C201.444 3.22559 200 4.66983 200 6.45139C200 8.23296 201.444 9.6772 203.226 9.6772Z" fill="#000F60"/>
<path d="M190.322 38.7099C192.104 38.7099 193.548 37.2657 193.548 35.4841C193.548 33.7025 192.104 32.2583 190.322 32.2583C188.541 32.2583 187.097 33.7025 187.097 35.4841C187.097 37.2657 188.541 38.7099 190.322 38.7099Z" fill="#000F60"/>
</svg>
