<svg width="30" height="35" viewBox="0 0 30 35" fill="none" xmlns="http://www.w3.org/2000/svg">
<path d="M11.8972 14.3978H11.897C11.4316 14.3978 10.9853 14.5829 10.6562 14.9124C10.3271 15.2418 10.1423 15.6886 10.1423 16.1545C10.1423 16.6204 10.3272 17.0672 10.6563 17.3966C10.9854 17.726 11.4317 17.9111 11.8971 17.9111C12.3625 17.9111 12.8088 17.726 13.1379 17.3966C13.467 17.0672 13.6519 16.6204 13.6519 16.1545C13.6519 15.6886 13.467 15.2418 13.138 14.9124C12.8089 14.5829 12.3626 14.3978 11.8972 14.3978ZM18.1543 14.3978C17.7711 14.3653 17.387 14.4494 17.0523 14.639C16.7176 14.8287 16.4479 15.115 16.2786 15.4607C16.1092 15.8063 16.048 16.1951 16.103 16.5761C16.158 16.9571 16.3267 17.3127 16.5869 17.5961C16.8471 17.8796 17.1867 18.0778 17.5614 18.1649C17.936 18.2519 18.3282 18.2237 18.6865 18.0839C19.0448 17.9441 19.3526 17.6992 19.5697 17.3814C19.7867 17.0636 19.9028 16.6875 19.9027 16.3026C19.913 16.0625 19.8759 15.8228 19.7935 15.5972C19.7112 15.3715 19.5852 15.1644 19.4228 14.9875C19.2605 14.8106 19.0649 14.6674 18.8472 14.5663C18.6295 14.4651 18.3941 14.4078 18.1543 14.3978ZM26.4856 0H3.51441C3.05176 0.00109415 2.59386 0.0934044 2.16686 0.271659C1.73985 0.449914 1.35211 0.710622 1.02576 1.0389C0.69941 1.36717 0.440855 1.75658 0.264856 2.18489C0.0888572 2.6132 -0.0011374 3.07202 1.08509e-05 3.53514V26.7364C-0.00111768 27.1995 0.0888913 27.6583 0.264898 28.0866C0.440905 28.5149 0.699462 28.9043 1.02581 29.2326C1.35215 29.5608 1.73989 29.8215 2.16689 29.9998C2.59388 30.178 3.05177 30.2703 3.51441 30.2714H22.9543L22.0457 27.0967L24.2399 29.1388L26.3143 31.0608L30 34.3214V3.53514C30.0011 3.07202 29.9111 2.6132 29.7351 2.18489C29.5591 1.75658 29.3006 1.36717 28.9742 1.0389C28.6479 0.710622 28.2601 0.449914 27.8331 0.271659C27.4061 0.0934044 26.9482 0.00109415 26.4856 0ZM19.8686 22.4118V22.4119C19.8686 22.4119 19.2513 21.674 18.737 21.0218C19.9796 20.7289 21.0788 20.0056 21.84 18.9797C21.2232 19.3907 20.5618 19.7303 19.8686 19.9921C19.0711 20.3329 18.237 20.5805 17.3828 20.7301C15.9146 21.0006 14.409 20.9948 12.9429 20.713C12.0822 20.5443 11.2386 20.2973 10.4228 19.9751C9.99278 19.8095 9.57466 19.6146 9.17135 19.3916C9.11987 19.3572 9.0686 19.3401 9.01714 19.3058C8.99134 19.2929 8.9681 19.2755 8.94857 19.2543C8.64014 19.0828 8.46842 18.9626 8.46842 18.9626C9.20216 19.9669 10.2633 20.6831 11.4685 20.9875C10.9544 21.6397 10.32 22.4118 10.32 22.4118C9.30173 22.4393 8.29228 22.2158 7.38056 21.7609C6.46883 21.3061 5.68277 20.6338 5.09156 19.8034C5.14722 16.3245 5.99125 12.9036 7.56001 9.79871C8.9406 8.71329 10.6238 8.08369 12.3771 7.99683L12.5484 8.20285C10.8988 8.61144 9.35953 9.37898 8.04 10.4508C8.04 10.4508 8.41721 10.2449 9.05137 9.95318C10.2837 9.39006 11.5971 9.02522 12.943 8.87214C13.039 8.85215 13.1366 8.84063 13.2346 8.83772C14.3833 8.68792 15.5458 8.67643 16.6973 8.8035C18.5082 9.01048 20.2611 9.5701 21.8573 10.4508C20.6047 9.43012 19.1498 8.68728 17.589 8.27143L17.8288 7.997C19.5822 8.08378 21.2654 8.71339 22.6459 9.79887C24.2148 12.9037 25.0589 16.3245 25.1146 19.8035C24.5186 20.6331 23.7291 21.3044 22.8148 21.759C21.9005 22.2136 20.8891 22.4377 19.8686 22.4118Z" fill="#000F60"/>
</svg>
