<svg width="30" height="30" viewBox="0 0 30 30" fill="none" xmlns="http://www.w3.org/2000/svg">
<path d="M15 0C13.0302 0 11.0796 0.388391 9.25975 1.143C7.43986 1.8976 5.78628 3.00364 4.3934 4.39797C1.58035 7.21395 0 11.0332 0 15.0156C0 21.6525 4.305 27.2834 10.26 29.2805C11.01 29.4006 11.25 28.9351 11.25 28.5297C11.25 28.1843 11.25 27.2383 11.25 25.992C7.095 26.893 6.21 23.9799 6.21 23.9799C5.52 22.2381 4.545 21.7727 4.545 21.7727C3.18 20.8417 4.65 20.8717 4.65 20.8717C6.15 20.9768 6.945 22.4183 6.945 22.4183C8.25 24.7007 10.455 24.025 11.31 23.6646C11.445 22.6886 11.835 22.0279 12.255 21.6525C8.925 21.2771 5.43 19.9858 5.43 14.2648C5.43 12.5981 6 11.2617 6.975 10.1956C6.825 9.82022 6.3 8.25859 7.125 6.23148C7.125 6.23148 8.385 5.82606 11.25 7.76308C12.435 7.43273 13.725 7.26756 15 7.26756C16.275 7.26756 17.565 7.43273 18.75 7.76308C21.615 5.82606 22.875 6.23148 22.875 6.23148C23.7 8.25859 23.175 9.82022 23.025 10.1956C24 11.2617 24.57 12.5981 24.57 14.2648C24.57 20.0008 21.06 21.2621 17.715 21.6375C18.255 22.103 18.75 23.019 18.75 24.4154V28.5297C18.75 28.9351 18.99 29.4156 19.755 29.2805C25.71 27.2684 30 21.6525 30 15.0156C30 13.0437 29.612 11.0912 28.8582 9.26939C28.1044 7.44761 26.9995 5.7923 25.6066 4.39797C24.2137 3.00364 22.5601 1.8976 20.7403 1.143C18.9204 0.388391 16.9698 0 15 0Z" fill="#000F60"/>
</svg>
