<svg width="30" height="31" viewBox="0 0 30 31" fill="none" xmlns="http://www.w3.org/2000/svg">
<path fill-rule="evenodd" clip-rule="evenodd" d="M0 2.50886C0 1.84347 0.264053 1.20533 0.734065 0.73483C1.20408 0.264328 1.84155 0 2.50625 0H27.4937C27.8229 0 28.1488 0.0648977 28.4527 0.19098C28.7569 0.317062 29.0331 0.501859 29.2659 0.73483C29.4986 0.967801 29.6832 1.24437 29.8092 1.54875C29.9351 1.85315 30 2.17938 30 2.50886V27.5223C30 27.8518 29.9351 28.1781 29.8092 28.4824C29.6832 28.7868 29.4986 29.0634 29.2659 29.2964C29.0331 29.5293 28.7569 29.7141 28.4527 29.8403C28.1488 29.9663 27.8229 30.0312 27.4937 30.0312H2.50625C1.84155 30.0312 1.20408 29.7668 0.734065 29.2964C0.264053 28.8258 0 28.1878 0 27.5223V2.50886ZM11.875 11.4494H15.9375V13.4928C16.5231 12.3177 18.0237 11.2617 20.2781 11.2617C24.5993 11.2617 25.625 13.6004 25.625 17.8917V25.8394H21.25V18.8689C21.25 16.4252 20.6644 15.0469 19.175 15.0469C17.1094 15.0469 16.25 16.5328 16.25 18.8689V25.8394H11.875V11.4494ZM4.37499 25.6517H8.74999V11.2617H4.37499V25.6517ZM9.37499 6.56932C9.37499 6.93905 9.30224 7.30516 9.1609 7.64674C9.01956 7.98832 8.81238 8.29869 8.55122 8.56013C8.29006 8.82156 7.98001 9.02895 7.63878 9.17045C7.29756 9.31193 6.93183 9.38476 6.56248 9.38476C6.19315 9.38476 5.82742 9.31193 5.4862 9.17045C5.14496 9.02895 4.83492 8.82156 4.57375 8.56013C4.31259 8.29869 4.10543 7.98832 3.96408 7.64674C3.82275 7.30516 3.74999 6.93905 3.74999 6.56932C3.74999 5.82263 4.04631 5.10651 4.57375 4.57851C5.1012 4.05053 5.81657 3.7539 6.56248 3.7539C7.30841 3.7539 8.02378 4.05053 8.55122 4.57851C9.07867 5.10651 9.37499 5.82263 9.37499 6.56932Z" fill="#000F60"/>
</svg>
