<svg width="148" height="50" viewBox="0 0 148 50" fill="none" xmlns="http://www.w3.org/2000/svg">
<g clip-path="url(#clip0_212_99)">
<path d="M122.454 6.35605C122.454 8.08537 122.407 9.81649 122.474 11.5432C122.508 12.4212 122.261 12.6493 121.358 12.7102C115.871 13.0799 111.451 16.5596 110.236 21.5857C109.045 26.5184 110.394 30.8213 114.196 34.1613C117.969 37.4758 122.395 38.23 127.035 36.3217C131.685 34.4097 133.978 30.6177 134.348 25.7106C134.443 24.451 134.836 24.2781 135.931 24.3009C139.207 24.3691 142.488 24.3848 145.763 24.2935C146.923 24.2612 147.1 24.6877 147.052 25.6841C146.744 32.0131 144.18 37.3328 139.904 41.9092C128.702 53.898 109.666 52.3412 100.827 38.7109C94.5227 28.9894 96.4088 15.4112 105.173 7.20273C109.673 2.98768 114.889 0.433359 121.107 0.0267179C122.168 -0.0426914 122.549 0.177315 122.48 1.30625C122.379 2.98388 122.454 4.67225 122.454 6.35605Z" fill="#000F60"/>
<path d="M68.6365 43.4068C68.6366 41.6782 68.6715 39.9487 68.6205 38.2216C68.598 37.4584 68.8611 37.2231 69.6101 37.1423C75.2836 36.5299 79.9454 31.8315 80.3486 26.3766C80.8126 20.0979 77.2132 14.8325 71.387 13.2671C65.2492 11.6179 58.525 16.1624 57.417 22.7777C57.248 23.7867 56.9279 24.0998 55.8945 24.0792C52.392 24.0091 48.8868 24.0213 45.3837 24.0729C44.4349 24.0869 44.2651 23.7888 44.3589 22.8981C45.7502 9.68572 56.4807 0.218076 69.7604 0.521749C81.8443 0.798079 92.5763 11.1708 93.2206 23.1967C93.9195 36.2398 85.4841 46.9297 72.6397 49.2781C68.6365 50.01 68.6365 50.01 68.6365 45.9996C68.6365 45.1353 68.6365 44.2711 68.6365 43.4068Z" fill="#000F60"/>
<path d="M0.0211925 36.5731C0.0211925 32.7525 0.0486667 28.9315 0.00040582 25.1114C-0.0106117 24.2394 0.198831 23.9762 1.10419 23.9778C5.42429 23.9851 9.74454 23.9134 14.0647 23.8682C16.7462 23.8402 19.4276 23.7987 22.1092 23.7823C25.0283 23.7646 26.5556 22.6755 27.2395 20.0885C27.9452 17.4195 26.8189 14.6536 24.5575 13.3845C23.137 12.5874 21.5818 12.6419 20.048 12.5945C18.4115 12.5438 16.7718 12.5578 15.1345 12.5927C14.3759 12.6089 14.1534 12.3404 14.1626 11.5745C14.2047 8.07273 14.1747 4.57016 14.1892 1.06796C14.191 0.628744 13.9504 -0.0102986 14.8132 0.0201774C18.7582 0.159534 22.7272 -0.335269 26.6457 0.507094C35.824 2.48017 42.1039 11.6836 40.8947 21.0046C39.5776 31.1573 32.1157 35.4978 24.7148 36.3371C21.7636 36.6718 18.8089 36.5262 15.8552 36.565C13.9708 36.5897 13.5543 36.9842 13.5482 38.9061C13.5387 41.8625 13.554 44.819 13.5424 47.7754C13.5358 49.4598 13.0388 49.9435 11.3338 49.9476C8.23973 49.9549 5.14567 49.9544 2.05159 49.946C0.534623 49.94 0.0263502 49.4208 0.0235091 47.8985C0.01647 44.1234 0.0156978 40.3483 0.0211925 36.5731Z" fill="#000F60"/>
</g>
<defs>
<clipPath id="clip0_212_99">
<rect width="147.059" height="50" fill="white"/>
</clipPath>
</defs>
</svg>
